<svg width="35" height="35" viewBox="0 0 35 35" fill="none" xmlns="http://www.w3.org/2000/svg">
<circle cx="17.027" cy="17.027" r="16.527" stroke="#0D0D0D"/>
<path d="M21.2162 10L14.4054 10C12.5247 10 11 11.5247 11 13.4054L11 20.2162C11 22.097 12.5247 23.6216 14.4054 23.6216H21.2162C23.097 23.6216 24.6216 22.097 24.6216 20.2162V13.4054C24.6216 11.5247 23.097 10 21.2162 10Z" stroke="#0D0D0D" stroke-width="1.2" stroke-linecap="round" stroke-linejoin="round"/>
<path d="M20.5344 16.3818C20.6185 16.9487 20.5217 17.5276 20.2577 18.0362C19.9938 18.5448 19.5762 18.9573 19.0644 19.2149C18.5525 19.4725 17.9725 19.5622 17.4067 19.4712C16.841 19.3801 16.3184 19.113 15.9132 18.7078C15.508 18.3027 15.2409 17.78 15.1498 17.2143C15.0588 16.6485 15.1485 16.0685 15.4061 15.5566C15.6637 15.0448 16.0762 14.6272 16.5848 14.3633C17.0934 14.0994 17.6723 14.0025 18.2392 14.0866C18.8174 14.1723 19.3526 14.4418 19.766 14.8551C20.1793 15.2684 20.4487 15.8037 20.5344 16.3818Z" stroke="#0D0D0D" stroke-width="1.2" stroke-linecap="round" stroke-linejoin="round"/>
<path d="M21.5566 13.0649H21.5636" stroke="#0D0D0D" stroke-width="1.2" stroke-linecap="round" stroke-linejoin="round"/>
</svg>
